<?xml version="1.0" encoding="utf-8"?>
<!-- Generator: Adobe Illustrator 21.0.0, SVG Export Plug-In . SVG Version: 6.00 Build 0)  -->
<svg version="1.1" id="Layer_1" xmlns="http://www.w3.org/2000/svg" xmlns:xlink="http://www.w3.org/1999/xlink" x="0px" y="0px"
	 viewBox="0 0 64 64" style="enable-background:new 0 0 64 64;" xml:space="preserve">
<style type="text/css">
	.st0{fill-rule:evenodd;clip-rule:evenodd;fill:#211D57;}
	.st1{fill:#FFFFFF;}
	.st2{fill:#211D57;}
</style>
<g>
	<path class="st2" d="M63,11.4c0,13.7,0,27.4,0,41.2c0,0.2-0.1,0.3-0.1,0.5c-0.7,4.9-4.5,9-9.4,9.7C51.6,63,49.7,63,47.9,63
		c-11.7,0-23.4,0-35,0c-5.6,0-10.1-3.5-11.5-9c-0.1-0.5-0.2-1-0.3-1.5c0-13.7,0-27.4,0-41.2c0-0.2,0.1-0.3,0.1-0.5
		C1.8,6,5.6,2,10.6,1.2C12.4,1,14.3,1,16.2,1c11.7,0,23.3,0,35,0c5.6,0,10.1,3.5,11.5,9C62.8,10.4,62.9,10.9,63,11.4z M31.7,45.9
		c3.8-0.1,9-0.3,14.2-0.6c0.5,0,1-0.2,1.4-0.5c2.2-1.3,3.4-3.3,3.7-5.7c0.5-4.9,0.5-9.8,0-14.7c-0.4-3.7-2.4-5.6-6.1-5.7
		c-3.8-0.1-7.6-0.3-11.4-0.4c-5.1-0.1-10.2,0.1-15.4,0.4c-1,0.1-1.8,0.4-2.5,1.1c-1.6,1.4-2.4,3.1-2.6,5.2
		c-0.5,4.4-0.4,8.9-0.1,13.4c0.1,1.6,0.5,3.1,1.4,4.4c1,1.4,2.1,2.5,4,2.6C22.3,45.5,26.3,45.6,31.7,45.9z"/>
	<path class="st2" d="M39.7,32c-3.9,2.6-7.7,5.1-11.6,7.7c0-5.2,0-10.3,0-15.4C32,26.9,35.8,29.4,39.7,32z"/>
</g>
</svg>
