<?xml version="1.0" encoding="utf-8"?>
<!-- Generator: Adobe Illustrator 21.0.0, SVG Export Plug-In . SVG Version: 6.00 Build 0)  -->
<svg version="1.1" id="Layer_1" xmlns="http://www.w3.org/2000/svg" xmlns:xlink="http://www.w3.org/1999/xlink" x="0px" y="0px"
	 viewBox="0 0 64 64" style="enable-background:new 0 0 64 64;" xml:space="preserve">
<style type="text/css">
	.st0{fill-rule:evenodd;clip-rule:evenodd;fill:#211D57;}
	.st1{fill:#FFFFFF;}
	.st2{fill:#211D57;}
</style>
<g>
	<path class="st2" d="M60.5,19.9c-0.7,0-1.4,0.3-1.8,0.9L39.4,40.1v3.4h3.2l11.1-11.3v12.9c0,2.3-1.9,4.2-4.2,4.2H16.9
		c-2.3,0-4.2-1.9-4.2-4.2V19.9c0-2.3,1.9-4.2,4.2-4.2h34h1.9c1.3,0,2.4-1.1,2.4-2.4s-1.1-2.4-2.4-2.4h-2.2H5.8
		c-2.5,0-4.6,2.1-4.6,4.6v34.1c0,2.5,2.1,4.6,4.6,4.6h47.6c2.5,0,4.6-2.1,4.6-4.6V27.8l3.8-3.9c0.5-0.4,0.9-1,0.9-1.8
		C62.7,20.9,61.7,19.9,60.5,19.9z M6.3,35.3c-1.5,0-2.8-1.2-2.8-2.8c0-1.5,1.2-2.8,2.8-2.8c1.5,0,2.8,1.2,2.8,2.8
		C9.1,34.1,7.9,35.3,6.3,35.3z"/>
	<path class="st2" d="M33.1,39.8c0.8,0.9,2,1.5,3.2,0.7c0.2-0.2,0.5-0.6,0.7-0.9c0.3-0.5,0.6-1,0.9-1.6c0.2-0.4,0.5-0.8,0.6-1.3
		c0-0.1,0.2-0.4,0-0.3c-1.3,0.8-2.8-0.4-3.4-1.5c-0.8-1.7-0.3-3.8-0.5-5.6c0,0-0.1,0-0.1,0c-2.9,1.3-5.9,2.7-8.8,4
		c-0.6,0.3-1.2,0.7-1.8,0.3c-0.3-0.2-0.5-0.6-0.6-1c0-0.2-0.1-0.4-0.1-0.6c0.1-0.1,0.2-0.2,0.3-0.4c1.1-1.3,2.1-2.6,2.9-4.1
		c0.8-1.3,1.7-2.9,1.6-4.5c-0.1-2.5-2.6-3.6-4.6-4.1c-0.4-0.1-1.2,1.7-1.4,1.9c-0.1,0.1-1.1,2.1-1,2.2c2.2,0.5,5,1.9,4.6,4.6
		c0,0,0,0.1-0.1,0.1c-0.4,0.5-0.9,1-1.3,1.5c-1.3,1.6-2.4,3.4-3.1,5.3c-0.3,0.9-0.6,2.1,0.1,2.9c0.8,0.9,2.5-0.3,3.4-0.7
		c1.6-0.7,3.1-1.4,4.7-2.1c0.8-0.3,1.5-0.7,2.3-1c0.3-0.1,0.3-0.3,0.5,0c0.2,0.2,0.1,0.3,0.1,0.5c0.1,0.5,0,0.9,0,1.4
		C32.1,37.1,32.1,38.6,33.1,39.8z M23,32.1C23,32.1,23,32.1,23,32.1C23.1,31.2,23.6,31.2,23,32.1z"/>
</g>
</svg>
