<svg xmlns="http://www.w3.org/2000/svg" xmlns:xlink="http://www.w3.org/1999/xlink" viewBox="0 0 17.31 17.31"><defs><style>.cls-1{fill:url(#linear-gradient);}.cls-2{fill:url(#linear-gradient-2);}.cls-3{fill:url(#linear-gradient-3);}.cls-4{fill:url(#linear-gradient-4);}.cls-5{fill:url(#linear-gradient-5);}</style><linearGradient id="linear-gradient" x1="7.28" y1="13.48" x2="8.8" y2="4.89" gradientUnits="userSpaceOnUse"><stop offset="0.02" stop-color="#fff"/><stop offset="1" stop-color="#e8faf5"/></linearGradient><linearGradient id="linear-gradient-2" x1="7.15" y1="17.18" x2="10.16" y2="0.13" xlink:href="#linear-gradient"/><linearGradient id="linear-gradient-3" x1="9.01" y1="8.75" x2="9.42" y2="6.46" xlink:href="#linear-gradient"/><linearGradient id="linear-gradient-4" x1="10.82" y1="7.21" x2="11.43" y2="3.76" xlink:href="#linear-gradient"/><linearGradient id="linear-gradient-5" x1="9.9" y1="8" x2="10.39" y2="5.17" xlink:href="#linear-gradient"/></defs><title>Asset 8</title><g id="Layer_2" data-name="Layer 2"><g id="Layer_8" data-name="Layer 8"><path class="cls-1" d="M12.31,11.34c-1.42-1.14-1.82-.58-2.47.06-.45.45-1.59-.49-2.58-1.48S5.34,7.8,5.79,7.35c.65-.65,1.21-1,.06-2.47S4,4.56,3.33,5.18s0,3.41,2.62,6.07,5.32,3.3,6.07,2.62S13.73,12.48,12.31,11.34ZM4.83,5.66l-.08,0-.24.09-.13.07-.13.09a.89.89,0,0,0-.12.13A.92.92,0,0,0,4,6.25a1.06,1.06,0,0,0-.06.2c0,.07,0,.14,0,.21a2.55,2.55,0,0,0,0,.4A2.58,2.58,0,0,0,4,7.35l0,.11L4,7.36a2.66,2.66,0,0,1-.15-.26,2.75,2.75,0,0,1-.17-.4c0-.08,0-.16-.06-.25a1.48,1.48,0,0,1,0-.28,1.42,1.42,0,0,1,0-.29,1.47,1.47,0,0,1,.11-.28,1.38,1.38,0,0,1,.15-.24,2,2,0,0,1,.16-.19l.25-.23.06-.05,0,0,.49.76Zm7.32,7.25c0,.06-.12.15-.22.26l-.18.16a1.64,1.64,0,0,1-.23.15,1.45,1.45,0,0,1-.27.11,1.37,1.37,0,0,1-.28.06H10.7a1.62,1.62,0,0,1-.25,0l-.22-.06L10,13.47a2.3,2.3,0,0,1-.26-.13l-.1-.05a.56.56,0,0,0,.17.08,2.24,2.24,0,0,0,.29,0h.39a1.28,1.28,0,0,0,.21,0l.1,0,.09,0a1,1,0,0,0,.45-.5c0-.09.07-.17.09-.23l0-.1.73.38Z"/><path class="cls-2" d="M8.65,17.31a8.65,8.65,0,1,1,8.65-8.65A8.66,8.66,0,0,1,8.65,17.31ZM8.65.72a7.93,7.93,0,1,0,7.93,7.93A7.94,7.94,0,0,0,8.65.72Z"/><path class="cls-3" d="M8.51,6.38l-.32-.14-.26.68L8.19,7A3.09,3.09,0,0,1,9.81,8.89l.65-.34A3.83,3.83,0,0,0,8.51,6.38Z"/><path class="cls-4" d="M10.59,3.81A5.41,5.41,0,0,0,9.3,3.39L9,4.07A4.08,4.08,0,0,1,12.5,7.51l.67-.34A4.73,4.73,0,0,0,10.59,3.81Z"/><path class="cls-5" d="M9.68,5.21a4.44,4.44,0,0,0-1-.33l-.27.69a3.74,3.74,0,0,1,.91.3,3.2,3.2,0,0,1,1.76,2.35l.67-.34A3.89,3.89,0,0,0,9.68,5.21Z"/></g></g></svg>