<svg xmlns="http://www.w3.org/2000/svg" viewBox="0 0 75.99 44.99"><defs><style>.cls-1,.cls-2{fill:#fff;}.cls-2{font-size:13.94px;font-family:HelveticaCE-Bold, Helvetica;font-weight:700;}.cls-3{letter-spacing:-0.02em;}</style></defs><title>Asset 3</title><g id="Layer_2" data-name="Layer 2"><g id="Layer_3" data-name="Layer 3"><path class="cls-1" d="M39.24,17.65V15.28A15.25,15.25,0,0,0,24,0H15.27A15.21,15.21,0,0,0,4.73,4.22l7.81,6.7a35.61,35.61,0,0,1,.38-3.79,37.65,37.65,0,0,1,1.14-3.72l.45,0,3,8.21.07-.05a1.65,1.65,0,0,1,.16-.13q.22-.17.45-.33a7.17,7.17,0,0,1,.7-.42,7,7,0,0,1,.93-.4A6.15,6.15,0,0,1,20.9,10a5.43,5.43,0,0,1,2.63.26A6.42,6.42,0,0,1,25,11a8.93,8.93,0,0,1,1.49,1.3l.29.33.14.17.07.09s0,.06.09.08h0l.09,0,.26.09.82.28,1.09.37,1.22.41,1.2.41,1,.35.73.25a2.71,2.71,0,0,0,.27.09l-.21,0-.51-.1-.82-.17-1-.21-1.07-.22-1.1-.23-1.05-.22a11,11,0,0,0-1.79-.35,2.71,2.71,0,0,0-1.35.49A10,10,0,0,0,22.5,16.1c-.56.61-1,1.32-1.56,2a7.94,7.94,0,0,1-.86.88,10.6,10.6,0,0,1-1.51,1.15,9.79,9.79,0,0,1-2.16,1,9.62,9.62,0,0,1-2.8.47h-.37s-.75,1.54-1.6,3l1.78-.07H15l21.47-.17C39.78,24.05,39.24,20.16,39.24,17.65Z"/><path class="cls-1" d="M24,39.24h0l-.19,0c-1.53.16-11.75,1-15.4-5.27-4.91-8.22,1.86-17.43,1.86-17.43l.2-.14A2.6,2.6,0,0,0,10,16a28.5,28.5,0,0,1-4.06-2.76A10.65,10.65,0,0,1,2.75,6.53,15.19,15.19,0,0,0,0,15.27V29.72A15.27,15.27,0,0,0,15.27,45H24a1,1,0,0,0,1-1V40.2A1,1,0,0,0,24,39.24Z"/><text class="cls-2" transform="translate(14.29 36.29)">ExpoBi<tspan class="cls-3" x="48.04" y="0">r</tspan><tspan x="53.18" y="0">d</tspan></text></g></g></svg>