<svg xmlns="http://www.w3.org/2000/svg" viewBox="0 0 248.33 284.48"><defs><style>.cls-1{fill:#fff;}</style></defs><title>white color expobird logo</title><g id="Layer_2" data-name="Layer 2"><g id="Layer_1-2" data-name="Layer 1"><path class="cls-1" d="M248.13,111.58v-15A96.4,96.4,0,0,0,151.83,0H96.53a96.17,96.17,0,0,0-66.6,26.69L79.32,69c.75-8,.83-16.17,2.42-24,1.63-8,4.73-15.68,7.19-23.5l2.84-.22L110.5,73.21l.47-.32a10.46,10.46,0,0,1,1-.84Q113.33,71,114.8,70a45.32,45.32,0,0,1,4.45-2.63,44.52,44.52,0,0,1,5.85-2.51,38.86,38.86,0,0,1,7-1.71,34.33,34.33,0,0,1,16.66,1.67A40.59,40.59,0,0,1,158,69.54a56.45,56.45,0,0,1,9.43,8.23c.63.68,1.26,1.37,1.86,2.07l.9,1.07.47.58c.22.28.24.37.58.48l.2.07.54.18,1.65.56,5.19,1.77,6.9,2.35,7.71,2.62L201,92.1l6.55,2.23,4.6,1.57a17.11,17.11,0,0,0,1.72.59l-1.35-.28-3.2-.66-5.17-1.07-6.26-1.31-6.77-1.4-6.95-1.44-6.65-1.37c-3.67-.77-7.59-2.09-11.35-2.21-3-.11-6,1.69-8.5,3.12a62.93,62.93,0,0,0-15.38,12c-3.56,3.89-6.57,8.34-9.84,12.47a50.23,50.23,0,0,1-5.42,5.59,67,67,0,0,1-9.55,7.24,61.89,61.89,0,0,1-13.67,6.36,60.85,60.85,0,0,1-17.68,2.94c-.77,0-1.55.06-2.32,0,0,0-4.71,9.74-10.13,18.79l11.28-.42h9.92l135.78-1.1C251.51,152.08,248.13,127.45,248.13,111.58Z"/><path class="cls-1" d="M151.89,248.08h-.1a6,6,0,0,0-1.18.14c-9.67,1-74.29,6.42-97.39-33.32C22.18,162.91,65,104.7,65,104.7l1.24-.86A16.45,16.45,0,0,0,63,101.35c-8.8-5.49-18.05-10.61-25.69-17.48C24.64,72.53,19.75,57.34,17.38,41.31A96.07,96.07,0,0,0,0,96.54v91.4a96.53,96.53,0,0,0,96.53,96.54h55.35a6.07,6.07,0,0,0,6-6.12V254.19A6.07,6.07,0,0,0,151.89,248.08Z"/></g></g></svg>