<svg xmlns="http://www.w3.org/2000/svg" viewBox="0 0 59.51 37.15"><defs><style>.cls-1{fill:#2e3390;}</style></defs><title>Asset 1</title><g id="Layer_2" data-name="Layer 2"><g id="Layer_1-2" data-name="Layer 1"><path class="cls-1" d="M26.84,23.74c0-.13,0-.26,0-.38a13.36,13.36,0,0,0-.76-4.09C23.39,10.3,14.78,2.69,11.28.61a4,4,0,0,0-3-.5A1.83,1.83,0,0,0,6.91,2.69,4.14,4.14,0,0,0,8.25,4.75a10.52,10.52,0,0,1,3.26,5.71A13.41,13.41,0,1,0,26.83,23.73Z"/><path class="cls-1" d="M59.51,23.74c0-.13,0-.26,0-.38a13.36,13.36,0,0,0-.76-4.09C56.06,10.3,47.44,2.69,43.95.61a4,4,0,0,0-3-.5,1.83,1.83,0,0,0-1.33,2.58,4.14,4.14,0,0,0,1.34,2.06,10.52,10.52,0,0,1,3.26,5.71A13.41,13.41,0,1,0,59.5,23.73Z"/></g></g></svg>