<?xml version="1.0" encoding="utf-8"?>
<!-- Generator: Adobe Illustrator 21.0.0, SVG Export Plug-In . SVG Version: 6.00 Build 0)  -->
<svg version="1.1" id="Layer_1" xmlns="http://www.w3.org/2000/svg" xmlns:xlink="http://www.w3.org/1999/xlink" x="0px" y="0px"
	 viewBox="0 0 64 64" style="enable-background:new 0 0 64 64;" xml:space="preserve">
<style type="text/css">
	.st0{fill:#27235E;}
	.st1{fill:#FFFFFF;}
</style>
<path class="st0" d="M25.3,60.9c0-1.8,0-3.4,0-5c4.6,0,9.2,0,13.9,0c0,1.7,0,3.3,0,5c0.3,0,0.6,0,0.9,0c2.4,0,4.8,0,7.2,0
	c0.9,0,1.3,0.4,1.4,1c0,0.7-0.5,1.1-1.3,1.1c-10,0-20,0-30.1,0c-0.9,0-1.3-0.4-1.3-1.1c0-0.7,0.4-1,1.3-1c2.4,0,4.7,0,7.1,0
	C24.6,60.9,24.9,60.9,25.3,60.9z"/>
<path class="st0" d="M62.1,20.6c0-2.2-1.4-3.6-3.6-3.6c-5.4,0-9.2,0-14.6,0c0.7,0.7,1.4,1.4,2.1,2.1c4.7,0,7.7,0,12.4,0
	c1.2,0,1.6,0.4,1.6,1.5c0,9.2,0,18.4,0,27.7c0,0.2,0,0.4,0,0.6c-18.5,0-37,0-55.6,0c0-0.3,0-0.6,0-0.9c0-9,0-18,0-26.9
	c0-1.6,0.3-1.9,1.8-1.9c6.3,0,11.1,0,17.4,0c0.4-0.7,0.8-1.4,1.1-2.1c-6.8,0-12.1,0-18.9,0c-2.3,0-3.6,1.3-3.6,3.7
	c0,10.1,0,20.3,0,30.4c0,2.5,1.3,3.8,3.8,3.8c8.7,0,17.4,0,26.2,0c8.7,0,17.4,0,26.2,0c2.4,0,3.7-1.3,3.7-3.7
	C62.1,41,62.1,30.8,62.1,20.6z"/>
<path class="st0" d="M44.5,19.1c-0.7-0.7-1.4-1.4-2.1-2.1c-4-3.9-7.9-7.9-11.9-11.9c0,0.2,0,0.3,0,0.4c-0.6,1.9-1.1,3.9-1.7,5.8
	c-0.6,2-1.4,3.8-2.3,5.7c-0.4,0.7-0.7,1.4-1.1,2.1c-0.7,1.2-1.5,2.3-2.3,3.4c-0.2,0.2-0.1,0.3,0,0.5c3.2,3.2,6.4,6.4,9.6,9.5
	c0.2,0.2,0.3,0.2,0.6,0c1.5-1.2,3.1-2.2,4.8-3.1c3.3-1.8,6.7-3,10.3-4c0.7-0.2,1.4-0.4,2.1-0.6C48.4,23,46.4,21.1,44.5,19.1z"/>
<path class="st0" d="M30.2,35.4c0.3-0.3,0.6-0.6,0.8-0.9c-3.4-3.3-6.7-6.7-10.1-10c-0.1,0-0.1,0.1-0.1,0.1c-1.6,1.6-3.2,3.1-4.7,4.8
	c-2.4,2.5-2.7,6.1-0.7,9c2.4,3.5,7.5,4.1,10.6,1.2C27.4,38.3,28.8,36.8,30.2,35.4z"/>
<path class="st0" d="M40.4,39.3c-0.9,0.1-1.8-0.1-2.6-0.5c-1.6-0.9-3.2-1.7-4.8-2.6c-0.2-0.1-0.4-0.1-0.6,0.1
	c-0.9,0.9-1.7,1.7-2.6,2.6c-0.8,0.8-1.6,1.6-2.4,2.5c0.1,0.1,0.2,0.1,0.2,0.1c2.5,1.3,5,2.5,7.5,3.8c1,0.5,2,0.4,2.9-0.4
	c1.1-1.1,2.3-2.3,3.4-3.4c0.4-0.5,0.6-1,0.3-1.4C41.5,39.5,41.1,39.3,40.4,39.3z"/>
<path class="st0" d="M47.8,7.7c2.4,2.4,3.6,5.4,3.7,8.9c1.1,0,2.1,0,3.1,0C54.7,8,47.4,0.8,38.9,1c0,1,0,2,0,3.1
	C42.3,4.1,45.3,5.3,47.8,7.7z"/>
<path class="st0" d="M38.9,6.4c0,1,0,2,0,3c2,0,3.7,0.7,5.1,2.1c1.4,1.4,2.1,3.1,2.1,5.1c1,0,2,0,3,0C49.3,10.8,44.2,6.2,38.9,6.4z"
	/>
<g>
	<circle class="st1" cx="10.8" cy="25.5" r="3.3"/>
	<path class="st0" d="M6.4,25.6c0-0.1,0-0.1,0-0.2c0,0,0-0.1,0-0.1c0-0.1,0-0.2,0-0.3c0.1-0.6,0.2-1.1,0.5-1.6
		c0.8-1.4,2-2.2,3.6-2.3c0,0,0.1,0,0.1,0c0.1,0,0.1,0,0.2,0c0,0,0.1,0,0.1,0c0.2,0,0.4,0,0.7,0.1c1,0.2,1.9,0.7,2.6,1.5
		c0.6,0.7,0.9,1.5,1,2.4c0,0.4,0,0.8,0,1.2c-0.1,0.8-0.5,1.5-1,2.1c-1.1,1.2-2.5,1.7-4.1,1.4c-0.8-0.1-1.5-0.5-2.1-1
		C7,28,6.5,27,6.4,25.7C6.4,25.7,6.4,25.6,6.4,25.6z M11.9,24.7c-0.2,0-0.4,0-0.6,0c-0.1,0-0.1,0-0.1-0.1c0-0.1,0-0.3,0-0.4
		c0-0.1,0.1-0.2,0.2-0.2c0.1,0,0.3,0,0.4,0c0.1,0,0.1,0,0.1-0.1c0-0.2,0-0.5,0-0.7c0-0.1,0-0.1-0.1-0.1c-0.3,0-0.6,0-0.8,0
		c-0.4,0-0.7,0.3-0.8,0.7c0,0.2,0,0.5,0,0.7c0,0.1,0,0.1-0.1,0.1c-0.1,0-0.2,0-0.3,0c0,0.3,0,0.6,0,0.8c0.1,0,0.2,0,0.3,0
		c0.1,0,0.1,0,0.1,0.1c0,0.7,0,1.4,0,2.1c0,0.1,0,0.1,0.1,0.1c0.3,0,0.5,0,0.8,0c0.1,0,0.1,0,0.1-0.1c0-0.7,0-1.3,0-2
		c0-0.1,0-0.2,0-0.2c0,0,0.2,0,0.2,0c0.1,0,0.3,0,0.4,0C11.9,25.2,11.9,25,11.9,24.7z"/>
</g>
<g>
	
		<ellipse transform="matrix(2.232789e-02 -0.9998 0.9998 2.232789e-02 -32.7751 53.1916)" class="st1" cx="10.8" cy="43.4" rx="3.4" ry="3.4"/>
	<g>
		<path class="st0" d="M10.7,47.8c-2.4-0.1-4.4-2.1-4.3-4.5c0.1-2.4,2.1-4.4,4.5-4.3c2.4,0.1,4.4,2.1,4.3,4.5
			C15.2,45.9,13.2,47.8,10.7,47.8z M10.8,46c0.3,0,0.5,0,0.8,0c0.2,0,0.5,0,0.7,0c0.6-0.1,1-0.5,1.1-1.1c0.1-0.2,0.1-0.5,0.1-0.7
			c0-0.5,0-1,0-1.5c0-0.2,0-0.5,0-0.7c-0.1-0.6-0.4-1-1-1.1c-0.2-0.1-0.5-0.1-0.7-0.1c-0.6,0-1.2,0-1.8,0c-0.2,0-0.4,0-0.6,0
			c-0.6,0.1-0.9,0.4-1.1,1c-0.1,0.2-0.1,0.5-0.1,0.7c0,0.6,0,1.2,0,1.8c0,0.2,0,0.4,0,0.6c0.1,0.6,0.5,1,1.1,1.1
			C9.5,46,9.7,46,10,46C10.2,46,10.5,46,10.8,46z"/>
		<path class="st0" d="M8.6,43.3c0-0.4,0-0.7,0-1.1c0-0.1,0-0.3,0.1-0.4c0.1-0.3,0.4-0.5,0.7-0.6c0.2,0,0.3,0,0.5,0
			c0.4,0,0.8,0,1.2,0c0.3,0,0.6,0,0.9,0c0.2,0,0.3,0,0.5,0.1c0.3,0.1,0.4,0.4,0.5,0.7c0,0.2,0,0.3,0,0.5c0,0.6,0,1.3,0,1.9
			c0,0.2,0,0.3-0.1,0.5c-0.1,0.4-0.4,0.6-0.8,0.7c-0.1,0-0.3,0-0.4,0c-0.6,0-1.3,0-1.9,0c-0.2,0-0.3,0-0.5-0.1
			c-0.4-0.1-0.6-0.4-0.7-0.8c0-0.2,0-0.5,0-0.7C8.6,43.8,8.6,43.5,8.6,43.3C8.6,43.3,8.6,43.3,8.6,43.3z M10.8,42
			c-0.7,0-1.4,0.6-1.4,1.3c0,0.8,0.6,1.4,1.3,1.4c0.8,0,1.4-0.6,1.4-1.3C12.2,42.6,11.6,42,10.8,42z M12.3,42.3
			c0.2,0,0.3-0.1,0.3-0.3c0-0.2-0.1-0.3-0.3-0.3c-0.2,0-0.3,0.1-0.3,0.3C12,42.1,12.1,42.3,12.3,42.3z"/>
		
			<ellipse transform="matrix(2.516324e-02 -0.9997 0.9997 2.516324e-02 -32.7987 53.0768)" class="st0" cx="10.8" cy="43.4" rx="0.9" ry="0.9"/>
	</g>
</g>
<g>
	<circle class="st1" cx="54.8" cy="27.6" r="3.6"/>
	<path class="st0" d="M54.8,23.4c2.3,0,4.2,1.9,4.2,4.2c0,2.3-1.9,4.2-4.2,4.2c-2.3,0-4.2-1.9-4.2-4.2
		C50.6,25.3,52.5,23.4,54.8,23.4z M52.3,29.5C52.3,29.5,52.4,29.5,52.3,29.5c1,0.6,2,0.6,2.9,0.2c1.1-0.6,1.7-1.5,1.7-2.8
		c0-0.1,0-0.1,0.1-0.1c0.2-0.1,0.3-0.3,0.4-0.5c-0.2,0.1-0.4,0.1-0.5,0.1c0,0,0,0,0,0c0.2-0.1,0.3-0.3,0.4-0.5
		C57.1,25.9,57,26,56.8,26c-0.1,0-0.1,0-0.2,0c-0.3-0.3-0.7-0.3-1.1-0.2c-0.4,0.1-0.6,0.4-0.7,0.8c0,0.1,0,0.3,0,0.4
		c-0.9-0.1-1.6-0.4-2.2-1.1c-0.3,0.6-0.1,1,0.3,1.4c0,0,0,0,0,0c-0.1,0-0.3-0.1-0.4-0.1c0,0.5,0.3,0.9,0.8,1.1c-0.1,0-0.3,0-0.4,0
		c0.2,0.5,0.5,0.7,1,0.7C53.4,29.4,52.9,29.5,52.3,29.5z"/>
</g>
<g>
	<circle class="st1" cx="54.8" cy="43.4" r="4.1"/>
	<path class="st0" d="M53.2,47.2c-2-0.7-3.3-3-2.6-5.4c0.7-2.4,3.2-3.7,5.6-2.9c2.4,0.8,3.6,3.3,2.8,5.7c-0.8,2.3-3.3,3.4-5.4,2.7
		c0,0,0,0,0,0c0.4-0.5,0.6-1.2,0.7-1.8c0-0.1,0.1-0.2,0.1-0.3c0,0,0,0,0,0c0.4,0.5,1,0.6,1.6,0.4c0.7-0.2,1.1-0.7,1.4-1.4
		c0.3-0.7,0.4-1.4,0.1-2.1c-0.3-0.9-0.9-1.4-1.8-1.6c-0.9-0.2-1.7-0.1-2.5,0.4c-0.7,0.5-1.1,1.1-1.2,2c0,0.5,0.1,1,0.3,1.4
		c0.1,0.2,0.3,0.4,0.5,0.5c0.1,0.1,0.2,0.1,0.2-0.1c0-0.1,0.1-0.3,0.1-0.4c0-0.1,0-0.1,0-0.2c-0.4-0.6-0.4-1.5,0-2.1
		c0.3-0.5,0.8-0.8,1.4-0.8c0.4,0,0.8,0,1.2,0.2c0.5,0.3,0.8,0.8,0.9,1.4c0,0.5,0,0.9-0.2,1.4c-0.2,0.4-0.4,0.6-0.8,0.8
		c-0.2,0.1-0.5,0.1-0.7-0.1c-0.2-0.1-0.3-0.4-0.3-0.7c0.1-0.3,0.2-0.7,0.3-1c0.1-0.2,0.1-0.4,0.1-0.6c-0.1-0.4-0.4-0.6-0.8-0.5
		c-0.3,0.1-0.4,0.4-0.5,0.7c-0.1,0.3,0,0.6,0.1,0.9c0,0.1,0,0.1,0,0.2c-0.2,0.7-0.3,1.4-0.5,2.1c-0.1,0.4-0.1,0.7,0,1.1
		C53.2,47.1,53.2,47.1,53.2,47.2z"/>
</g>
</svg>
