<svg 
 xmlns="http://www.w3.org/2000/svg"
 xmlns:xlink="http://www.w3.org/1999/xlink"
 width="677px" height="661px">
<defs>
<linearGradient id="PSgrad_0" x1="70.711%" x2="0%" y1="70.711%" y2="0%">
  <stop offset="0%" stop-color="rgb(255,255,255)" stop-opacity="1" />
  <stop offset="100%" stop-color="rgb(55,119,255)" stop-opacity="1" />
</linearGradient>

</defs>
<path fill-rule="evenodd"  opacity="0.122" fill="rgb(53, 168, 255)"
 d="M174.412,48.110 C233.252,33.464 267.996,24.201 353.072,6.278 C412.374,-8.682 462.791,6.113 504.322,50.663 C551.126,94.318 592.306,137.605 631.218,182.161 C674.285,225.276 686.682,275.573 668.409,333.050 C653.778,392.996 636.914,450.824 616.646,506.380 C600.410,564.456 562.391,599.958 502.587,612.885 C442.373,628.939 385.210,642.801 323.928,654.718 C264.625,669.678 214.209,654.882 172.678,610.333 C128.243,569.773 87.821,529.766 45.781,478.835 C2.715,435.720 -9.683,385.423 8.590,327.945 C24.145,268.518 40.855,211.863 60.353,154.614 C76.589,96.540 114.609,61.038 174.412,48.110 Z"/>
<path fill="url(#PSgrad_0)"
 d="M174.412,48.110 C233.252,33.464 267.996,24.201 353.072,6.278 C412.374,-8.682 462.791,6.113 504.322,50.663 C551.126,94.318 592.306,137.605 631.218,182.161 C674.285,225.276 686.682,275.573 668.409,333.050 C653.778,392.996 636.914,450.824 616.646,506.380 C600.410,564.456 562.391,599.958 502.587,612.885 C442.373,628.939 385.210,642.801 323.928,654.718 C264.625,669.678 214.209,654.882 172.678,610.333 C128.243,569.773 87.821,529.766 45.781,478.835 C2.715,435.720 -9.683,385.423 8.590,327.945 C24.145,268.518 40.855,211.863 60.353,154.614 C76.589,96.540 114.609,61.038 174.412,48.110 Z"/>
</svg>