<svg 
 xmlns="http://www.w3.org/2000/svg"
 xmlns:xlink="http://www.w3.org/1999/xlink"
 width="635px" height="619px">
<defs>
<linearGradient id="PSgrad_0" x1="29.237%" x2="0%" y1="0%" y2="95.63%">
  <stop offset="0%" stop-color="rgb(255,255,255)" stop-opacity="1" />
  <stop offset="64%" stop-color="rgb(155,187,255)" stop-opacity="1" />
  <stop offset="100%" stop-color="rgb(55,119,255)" stop-opacity="1" />
</linearGradient>

</defs>
<path fill-rule="evenodd"  opacity="0.122" fill="rgb(53, 168, 255)"
 d="M163.919,44.895 C219.045,31.172 251.597,22.491 331.303,5.698 C386.864,-8.320 434.099,5.543 473.009,47.287 C516.860,88.192 555.441,128.754 591.897,170.504 C632.246,210.903 643.861,258.033 626.741,311.890 C613.034,368.060 597.233,422.247 578.245,474.305 C563.034,528.723 527.413,561.988 471.384,574.102 C414.969,589.145 361.414,602.133 303.999,613.299 C248.439,627.317 201.204,613.453 162.294,571.710 C120.663,533.704 82.793,496.217 43.406,448.493 C3.057,408.093 -8.558,360.964 8.562,307.106 C23.134,251.422 38.790,198.335 57.058,144.693 C72.269,90.275 107.889,57.008 163.919,44.895 Z"/>
<path fill="url(#PSgrad_0)"
 d="M163.919,44.895 C219.045,31.172 251.597,22.491 331.303,5.698 C386.864,-8.320 434.099,5.543 473.009,47.287 C516.860,88.192 555.441,128.754 591.897,170.504 C632.246,210.903 643.861,258.033 626.741,311.890 C613.034,368.060 597.233,422.247 578.245,474.305 C563.034,528.723 527.413,561.988 471.384,574.102 C414.969,589.145 361.414,602.133 303.999,613.299 C248.439,627.317 201.204,613.453 162.294,571.710 C120.663,533.704 82.793,496.217 43.406,448.493 C3.057,408.093 -8.558,360.964 8.562,307.106 C23.134,251.422 38.790,198.335 57.058,144.693 C72.269,90.275 107.889,57.008 163.919,44.895 Z"/>
</svg>