<?xml version="1.0" encoding="utf-8"?>
<!-- Generator: Adobe Illustrator 21.0.0, SVG Export Plug-In . SVG Version: 6.00 Build 0)  -->
<svg version="1.1" id="Layer_1" xmlns="http://www.w3.org/2000/svg" xmlns:xlink="http://www.w3.org/1999/xlink" x="0px" y="0px"
	 viewBox="0 0 64 64" style="enable-background:new 0 0 64 64;" xml:space="preserve">
<style type="text/css">
	.st0{fill-rule:evenodd;clip-rule:evenodd;fill:#211D57;}
	.st1{fill:#FFFFFF;}
	.st2{fill:#211D57;}
</style>
<g>
	<path class="st2" d="M1,51.2c0-9.8,0-19.6,0-29.4c0,0,0.1-0.1,0.1-0.1c0.5-3,3.3-5.3,6.5-5.2c2.2,0.1,4.4,0,6.6,0
		c1.5,0,2.5-0.7,3-2.1c0.6-1.7,1.1-3.3,1.7-5c0.5-1.4,1.4-2.1,2.9-2.1c6.7,0,13.5,0,20.2,0c1.5,0,2.4,0.7,2.9,2.1
		c0.6,1.7,1.1,3.4,1.7,5.1c0.5,1.4,1.4,2.1,2.9,2.1c2.2,0,4.5,0,6.7,0c3.8,0,6.5,2.7,6.5,6.5c0,4.5,0,9,0,13.5c0,4.6,0,9.2,0,13.8
		c0,1.4-0.4,2.7-1.2,3.8c-1.3,1.8-3.1,2.5-5.3,2.5c-16.2,0-32.4,0-48.6,0c-0.2,0-0.4,0-0.6,0c-1.9-0.1-3.4-0.9-4.6-2.3
		C1.6,53.4,1.3,52.3,1,51.2z M31.9,50.5c8.5,0,15.4-6.9,15.4-15.4c0-8.5-6.9-15.4-15.4-15.4c-8.5,0-15.4,6.9-15.4,15.4
		C16.4,43.5,23.3,50.4,31.9,50.5z M54.4,27c1.2,0,2.1-1,2.2-2.1c0-1.2-1-2.2-2.1-2.2c-1.2,0-2.2,1-2.2,2.2C52.2,26,53.2,27,54.4,27z
		"/>
	<path class="st2" d="M31.9,44.3c-5.1,0-9.3-4.1-9.3-9.2c0-5.1,4.1-9.2,9.2-9.2c5.1,0,9.3,4.1,9.3,9.2C41.1,40.1,37,44.2,31.9,44.3z
		"/>
</g>
</svg>
