<?xml version="1.0" encoding="utf-8"?>
<!-- Generator: Adobe Illustrator 21.0.0, SVG Export Plug-In . SVG Version: 6.00 Build 0)  -->
<svg version="1.1" id="Layer_1" xmlns="http://www.w3.org/2000/svg" xmlns:xlink="http://www.w3.org/1999/xlink" x="0px" y="0px"
	 viewBox="0 0 64 64" style="enable-background:new 0 0 64 64;" xml:space="preserve">
<style type="text/css">
	.st0{fill-rule:evenodd;clip-rule:evenodd;fill:#211D57;}
	.st1{fill:#FFFFFF;}
	.st2{fill:#211D57;}
</style>
<g>
	<g>
		<path class="st2" d="M1.6,50.9c0-0.9,0.8-1.7,1.7-1.7c3.7,0,7.3,0,10.9,0c4.1,0,8.2,0,12.2,0c0.5,0,0.8,0.1,1,0.6
			c0.4,1.2,1.3,1.6,2.6,1.5c1.6-0.1,3.1-0.1,4.7,0c1.2,0.1,2-0.3,2.4-1.4c0.2-0.5,0.4-0.6,1-0.6c8.1,0,5.2,0,13.2,0
			c0.1,0,6.8,0,9.9,0c0.9,0,1.7,0.8,1.7,1.7c0,1.3-0.3,2.4-1.4,3.4c-0.8,0.7-1.8,1-2.8,1c-9.9,0-19.8,0-29.7,0c-7.7,0-15.3,0-23,0
			C3.3,55.3,1.6,53.6,1.6,50.9C1.6,50.9,1.6,50.9,1.6,50.9z"/>
		<path class="st2" d="M54.8,9H9.7c-2.3,0-4.2,1.9-4.2,4.2v26.9c0,2.3,1.9,4.2,4.2,4.2h45.1c2.3,0,4.2-1.9,4.2-4.2V13.2
			C59,10.9,57.1,9,54.8,9z M31.5,43.1c-1,0-1.8-0.8-1.8-1.8c0-1,0.8-1.8,1.8-1.8c1,0,1.8,0.8,1.8,1.8C33.4,42.3,32.5,43.1,31.5,43.1
			z M54.3,34.3c0,2.3-1.9,4.2-4.2,4.2H14.4c-2.3,0-4.2-1.9-4.2-4.2V16.3c0-2.3,1.9-4.2,4.2-4.2h35.7c2.3,0,4.2,1.9,4.2,4.2V34.3z"/>
	</g>
	<path class="st2" d="M45.6,26.2H17.6c-1.3,0-2.3-1-2.3-2.3v0c0-1.3,1-2.3,2.3-2.3h28.1c1.3,0,2.3,1,2.3,2.3v0
		C47.9,25.1,46.9,26.2,45.6,26.2z"/>
	<g>
		<path class="st1" d="M25.5,25l0.3,0c0,0.1,0.1,0.2,0.1,0.2c0.1,0.1,0.2,0.1,0.3,0.1c0.2,0,0.3,0,0.4-0.1c0.1-0.1,0.1-0.1,0.2-0.3
			c0-0.1,0-0.2,0-0.4c-0.1,0.2-0.3,0.3-0.5,0.3c-0.3,0-0.5-0.1-0.6-0.3c-0.1-0.2-0.2-0.4-0.2-0.7c0-0.2,0-0.4,0.1-0.5
			s0.2-0.3,0.3-0.4c0.1-0.1,0.3-0.1,0.4-0.1c0.2,0,0.4,0.1,0.6,0.3v-0.2h0.3v1.7c0,0.3,0,0.5-0.1,0.6c-0.1,0.1-0.2,0.2-0.3,0.3
			c-0.1,0.1-0.3,0.1-0.5,0.1c-0.2,0-0.4-0.1-0.6-0.2C25.6,25.4,25.5,25.2,25.5,25z M25.8,23.8c0,0.3,0.1,0.4,0.2,0.6
			c0.1,0.1,0.2,0.2,0.4,0.2c0.2,0,0.3-0.1,0.4-0.2c0.1-0.1,0.2-0.3,0.2-0.5c0-0.2-0.1-0.4-0.2-0.5c-0.1-0.1-0.2-0.2-0.4-0.2
			c-0.1,0-0.3,0.1-0.4,0.2C25.8,23.4,25.8,23.6,25.8,23.8z"/>
		<path class="st1" d="M27.6,23.9c0-0.4,0.1-0.6,0.3-0.8c0.2-0.1,0.4-0.2,0.6-0.2c0.3,0,0.5,0.1,0.7,0.3c0.2,0.2,0.3,0.4,0.3,0.7
			c0,0.3,0,0.4-0.1,0.6c-0.1,0.1-0.2,0.3-0.3,0.3c-0.1,0.1-0.3,0.1-0.5,0.1c-0.3,0-0.5-0.1-0.7-0.3C27.6,24.4,27.6,24.2,27.6,23.9z
			 M27.9,23.9c0,0.2,0.1,0.4,0.2,0.6c0.1,0.1,0.2,0.2,0.4,0.2c0.2,0,0.3-0.1,0.4-0.2c0.1-0.1,0.2-0.3,0.2-0.6c0-0.2-0.1-0.4-0.2-0.5
			c-0.1-0.1-0.2-0.2-0.4-0.2c-0.2,0-0.3,0.1-0.4,0.2C28,23.4,27.9,23.6,27.9,23.9z"/>
		<path class="st1" d="M29.7,23.9c0-0.4,0.1-0.6,0.3-0.8c0.2-0.1,0.4-0.2,0.6-0.2c0.3,0,0.5,0.1,0.7,0.3c0.2,0.2,0.3,0.4,0.3,0.7
			c0,0.3,0,0.4-0.1,0.6c-0.1,0.1-0.2,0.3-0.3,0.3c-0.1,0.1-0.3,0.1-0.5,0.1c-0.3,0-0.5-0.1-0.7-0.3C29.7,24.4,29.7,24.2,29.7,23.9z
			 M30,23.9c0,0.2,0.1,0.4,0.2,0.6c0.1,0.1,0.2,0.2,0.4,0.2c0.2,0,0.3-0.1,0.4-0.2c0.1-0.1,0.2-0.3,0.2-0.6c0-0.2-0.1-0.4-0.2-0.5
			c-0.1-0.1-0.2-0.2-0.4-0.2c-0.2,0-0.3,0.1-0.4,0.2C30.1,23.4,30,23.6,30,23.9z"/>
		<path class="st1" d="M31.8,25l0.3,0c0,0.1,0.1,0.2,0.1,0.2c0.1,0.1,0.2,0.1,0.3,0.1c0.2,0,0.3,0,0.4-0.1c0.1-0.1,0.1-0.1,0.2-0.3
			c0-0.1,0-0.2,0-0.4c-0.1,0.2-0.3,0.3-0.5,0.3c-0.3,0-0.5-0.1-0.6-0.3c-0.1-0.2-0.2-0.4-0.2-0.7c0-0.2,0-0.4,0.1-0.5
			s0.2-0.3,0.3-0.4c0.1-0.1,0.3-0.1,0.4-0.1c0.2,0,0.4,0.1,0.6,0.3v-0.2h0.3v1.7c0,0.3,0,0.5-0.1,0.6c-0.1,0.1-0.2,0.2-0.3,0.3
			c-0.1,0.1-0.3,0.1-0.5,0.1c-0.2,0-0.4-0.1-0.6-0.2C31.9,25.4,31.8,25.2,31.8,25z M32.1,23.8c0,0.3,0.1,0.4,0.2,0.6
			c0.1,0.1,0.2,0.2,0.4,0.2c0.2,0,0.3-0.1,0.4-0.2c0.1-0.1,0.2-0.3,0.2-0.5c0-0.2-0.1-0.4-0.2-0.5c-0.1-0.1-0.2-0.2-0.4-0.2
			c-0.1,0-0.3,0.1-0.4,0.2C32.2,23.4,32.1,23.6,32.1,23.8z"/>
		<path class="st1" d="M34,24.8v-2.7h0.3v2.7H34z"/>
		<path class="st1" d="M36.2,24.2l0.3,0c-0.1,0.2-0.2,0.4-0.3,0.5c-0.1,0.1-0.3,0.2-0.6,0.2c-0.3,0-0.5-0.1-0.7-0.3
			c-0.2-0.2-0.2-0.4-0.2-0.7c0-0.3,0.1-0.6,0.3-0.8c0.2-0.2,0.4-0.3,0.7-0.3c0.3,0,0.5,0.1,0.6,0.3c0.2,0.2,0.2,0.4,0.2,0.7
			c0,0,0,0,0,0.1h-1.4c0,0.2,0.1,0.4,0.2,0.5c0.1,0.1,0.2,0.2,0.4,0.2c0.1,0,0.2,0,0.3-0.1S36.1,24.3,36.2,24.2z M35.1,23.7h1.1
			c0-0.2-0.1-0.3-0.1-0.4c-0.1-0.1-0.2-0.2-0.4-0.2c-0.2,0-0.3,0.1-0.4,0.2C35.2,23.4,35.1,23.5,35.1,23.7z"/>
	</g>
</g>
</svg>
