<?xml version="1.0" encoding="utf-8"?>
<!-- Generator: Adobe Illustrator 24.0.1, SVG Export Plug-In . SVG Version: 6.00 Build 0)  -->
<svg version="1.1" id="Layer_1" xmlns="http://www.w3.org/2000/svg" xmlns:xlink="http://www.w3.org/1999/xlink" x="0px" y="0px"
	 viewBox="0 0 480 146.1" style="enable-background:new 0 0 480 146.1;" xml:space="preserve">
<style type="text/css">
	.st0{opacity:0.19;fill:#A9A9A9;enable-background:new    ;}
	.st1{opacity:0.1;fill:#848484;enable-background:new    ;}
</style>
<path class="st0" d="M0,131.7c0,0,4.8-28.8,23.6-10.6c8.6,4.5,14.1,11.2,29-4.3c11.5-19,53.8-104.4,66.6-60.8
	c0,0,10.3,33.4,36.1-14.3c0,0,20.3-55.9,44.1,0c0,0,36.5,120.5,62.1,30.5c0,0,42.5-116.9,66.3-46.8c0,0,18.8,36.1,34.2,2.7
	c0,0,14.6-19.3,26.9,13.6s21.7,89.5,47.7,51.1c0,0,13.8-29.5,24.8-0.5c0,0,13.6,38.8,18,53.7L0.6,147.2L0,131.7z"/>
<path class="st1" d="M0.6,123.6c0,0,17,2,30.5-8.8c0,0,9.4-4.7,17-31.5c7.8-18.6,22.7-55.8,39.1-19c2.4,5.3,4.4,10.6,7,15.8
	c3.9,7.7,8.7,17,16.3,21.6c6,3.7,11.6-0.2,15-5.4c2-3.1,3.2-6.7,4.6-10.1c4-10,7.5-20.1,13.7-28.9c1.7-2.4,3.9-5.3,6.7-6.3
	c5.7-2,8,5.5,9.1,9.5c1.6,6.3,3,12.4,5.5,18.4c4.5,10.9,10.5,22.2,18.6,30.8c3.8,4.1,8.8,7.9,14.6,8.2c6.9,0.3,12.6-4.6,16.7-9.6
	c0.5-0.6,1-1.2,1.4-1.8c14.3-18.4,46-65.2,46-65.2s26-38.5,43.2-7.6c4,7.3,8.5,14.4,12.8,21.5c3.6,6.1,7.3,12.5,12.4,17.6
	c3.2,3.2,7.6,6,12.1,3.5c3-1.7,5.2-4.5,6.7-7.5c2-4,3.6-8.3,5.7-12.2s4.4-7.6,6.8-11.3c1.8-2.8,3.9-6.3,7.1-7.6
	c3.1-1.4,5.8,0.7,7.7,3c4.9,6.1,6.9,13.9,9.7,21c7.2,18.2,10.8,33.5,27.8,14.7c3.5-2,9.4-9.2,17.4,3.9c4.3,7,10.9,27.2,22.6,20.2
	c2.9-1.7,5.4-4.3,8.1-6.3c3-2.3,5.8-4.7,8.6-7.3c3.2-2.9,6.2-6,9.1-9.2v68H0.6V123.6z"/>
</svg>
