<svg xmlns="http://www.w3.org/2000/svg" xmlns:xlink="http://www.w3.org/1999/xlink" viewBox="0 0 1433.01 967.99"><defs><style>.cls-1{fill:#f5f5f5;}.cls-2{isolation:isolate;}.cls-3{clip-path:url(#clip-path);}.cls-10,.cls-11,.cls-12,.cls-13,.cls-4,.cls-5,.cls-6,.cls-7,.cls-8,.cls-9{mix-blend-mode:color-burn;}.cls-4{fill:url(#radial-gradient);}.cls-5{fill:url(#radial-gradient-2);}.cls-6{fill:url(#radial-gradient-3);}.cls-7{fill:url(#radial-gradient-4);}.cls-8{fill:url(#radial-gradient-5);}.cls-9{fill:url(#radial-gradient-6);}.cls-10{fill:url(#radial-gradient-7);}.cls-11{fill:url(#radial-gradient-8);}.cls-12{fill:url(#radial-gradient-9);}.cls-13{fill:url(#radial-gradient-10);}.cls-14,.cls-15,.cls-16,.cls-17,.cls-18,.cls-19,.cls-20,.cls-21,.cls-22,.cls-23{mix-blend-mode:color-dodge;}.cls-14{fill:url(#radial-gradient-11);}.cls-15{fill:url(#radial-gradient-12);}.cls-16{fill:url(#radial-gradient-13);}.cls-17{fill:url(#radial-gradient-14);}.cls-18{fill:url(#radial-gradient-15);}.cls-19{fill:url(#radial-gradient-16);}.cls-20{fill:url(#radial-gradient-17);}.cls-21{fill:url(#radial-gradient-18);}.cls-22{fill:url(#radial-gradient-19);}.cls-23{fill:url(#radial-gradient-20);}</style><clipPath id="clip-path"><rect class="cls-1" x="30.63" y="27.84" width="1366.58" height="911.05"/></clipPath><radialGradient id="radial-gradient" cx="2344.38" cy="1867.16" r="413.82" gradientTransform="translate(-1085.33 -2405.86) rotate(45) scale(1.5 0.52)" gradientUnits="userSpaceOnUse"><stop offset="0"/><stop offset="0.01" stop-color="#090909"/><stop offset="0.09" stop-color="#3c3c3c"/><stop offset="0.17" stop-color="#6a6a6a"/><stop offset="0.26" stop-color="#929292"/><stop offset="0.35" stop-color="#b4b4b4"/><stop offset="0.44" stop-color="#cfcfcf"/><stop offset="0.54" stop-color="#e5e5e5"/><stop offset="0.66" stop-color="#f4f4f4"/><stop offset="0.79" stop-color="#fcfcfc"/><stop offset="1" stop-color="#fff"/></radialGradient><radialGradient id="radial-gradient-2" cx="1906.72" cy="2182.16" r="605.6" xlink:href="#radial-gradient"/><radialGradient id="radial-gradient-3" cx="1821.33" cy="2556.62" r="863.88" xlink:href="#radial-gradient"/><radialGradient id="radial-gradient-4" cx="2095.83" cy="1619.49" r="714.59" xlink:href="#radial-gradient"/><radialGradient id="radial-gradient-5" cx="2523.94" cy="867.81" r="471.33" xlink:href="#radial-gradient"/><radialGradient id="radial-gradient-6" cx="2368.39" cy="1471.89" r="589" xlink:href="#radial-gradient"/><radialGradient id="radial-gradient-7" cx="2222.07" cy="1192.1" r="408.35" xlink:href="#radial-gradient"/><radialGradient id="radial-gradient-8" cx="2013.18" cy="2546.98" r="671.1" xlink:href="#radial-gradient"/><radialGradient id="radial-gradient-9" cx="2210.03" cy="2356.75" r="900.38" xlink:href="#radial-gradient"/><radialGradient id="radial-gradient-10" cx="1900.19" cy="2831.63" r="693.37" xlink:href="#radial-gradient"/><radialGradient id="radial-gradient-11" cx="2116.85" cy="2587.75" r="455.63" gradientTransform="translate(-1085.33 -2405.86) rotate(45) scale(1.5 0.52)" gradientUnits="userSpaceOnUse"><stop offset="0" stop-color="#3d3d3d"/><stop offset="0.01" stop-color="#3b3b3b"/><stop offset="0.09" stop-color="#252525"/><stop offset="0.2" stop-color="#141414"/><stop offset="0.32" stop-color="#090909"/><stop offset="0.5" stop-color="#020202"/><stop offset="1"/></radialGradient><radialGradient id="radial-gradient-12" cx="2092.07" cy="2088" r="592.57" xlink:href="#radial-gradient-11"/><radialGradient id="radial-gradient-13" cx="2431.7" cy="1148.51" r="958.85" xlink:href="#radial-gradient-11"/><radialGradient id="radial-gradient-14" cx="2323.8" cy="888.83" r="407.48" xlink:href="#radial-gradient-11"/><radialGradient id="radial-gradient-15" cx="2567.7" cy="1314.76" r="1036.04" xlink:href="#radial-gradient-11"/><radialGradient id="radial-gradient-16" cx="2224.38" cy="1678.97" r="360.83" xlink:href="#radial-gradient-11"/><radialGradient id="radial-gradient-17" cx="2484.98" cy="1483.44" r="382.51" xlink:href="#radial-gradient-11"/><radialGradient id="radial-gradient-18" cx="1985.48" cy="1912.7" r="714.67" xlink:href="#radial-gradient-11"/><radialGradient id="radial-gradient-19" cx="1990.41" cy="3002.74" r="693.84" xlink:href="#radial-gradient-11"/><radialGradient id="radial-gradient-20" cx="2424.31" cy="603.41" r="401.28" xlink:href="#radial-gradient-11"/></defs><title>services bg</title><g class="cls-2"><g id="Layer_2" data-name="Layer 2"><g id="Layer_11" data-name="Layer 11"><rect class="cls-1" x="30.63" y="27.84" width="1366.58" height="911.05"/><g class="cls-3"><path class="cls-4" d="M1141.25,968C1089,861.2,996.06,734.47,874.7,613.11,668.12,406.53,446,282.18,333.07,301.07L1000,968Z"/><path class="cls-5" d="M823.81,968c12.66-170-167-483-458.76-774.73A2542.23,2542.23,0,0,0,149,0H0V164.19L803.8,968Z"/><path class="cls-6" d="M825.61,968C727.45,729.7,517.32,430.2,232,144.92Q155.89,68.77,78.81,0H0V392.15L575.84,968Z"/><path class="cls-7" d="M1344.71,968c-41.05-209.87-239-523.44-534.16-818.61C757.48,96.33,703.82,46.43,650.28,0H264.71l968,968Z"/><path class="cls-8" d="M1433,401.6c-230.28-225-474.12-359.25-599.55-338.26L1433,662.88Z"/><path class="cls-9" d="M1433,836.71c-77.36-128.24-188.55-269.46-325-405.92C882.52,205.31,644,48.66,472.58,0H350.43l968,968H1433Z"/><path class="cls-10" d="M683.48,0H522.9l773.76,773.76c18.64-111.4-104.07-330.62-307.92-534.47C885.6,136.15,778.54,53.8,683.48,0Z"/><path class="cls-11" d="M789.87,968C703.38,799.74,557.26,603.56,369.05,415.35c-123-123-249.3-227.91-369.05-310V418.62L549.38,968Z"/><path class="cls-12" d="M1147.78,968c-110.33-161-251.47-331-416.87-496.43C536.76,277.42,336.31,116.69,151.41,0H0V240.18L727.81,968Z"/><path class="cls-13" d="M591.34,968C502.39,792.81,350.21,587.68,153.48,391,102.66,340.13,51.28,292.3,0,247.75v374.4L345.85,968Z"/><path class="cls-14" d="M657.62,968C597.74,859.82,504,737,385.8,618.78,254,487,116.55,385.66,0,327.72v158L482.24,968Z"/><path class="cls-15" d="M1014.84,968C956.68,798.54,804.65,573.74,591.43,360.52,433,202.09,268.18,77.46,124.42,0H0V97.85L870.15,968Z"/><path class="cls-16" d="M1433,250.76c-1.75-1.76-3.48-3.52-5.24-5.28C1339.1,156.81,1249.19,74.7,1159.88,0H650.31L1433,782.71Z"/><path class="cls-17" d="M1433,520c-53.57-89.25-131-187.71-226.08-282.81C1105.06,135.28,999.34,53.71,905.21,0H743.72L1433,689.3Z"/><path class="cls-18" d="M1433,319.05C1304.74,198.85,1175.4,91.71,1049.65,0H542.59L1433,890.42Z"/><path class="cls-19" d="M1068.61,908.69c16.47-98.44-92-292.14-272.08-472.27S422.69,147.87,324.26,164.34Z"/><path class="cls-20" d="M1401.63,968c-47.7-99.94-134.82-219.53-249.25-334C961.43,443.08,756.09,328.14,651.74,345.6L1274.13,968Z"/><path class="cls-21" d="M1122.68,968c-36.45-209.84-236-528.92-536.11-829C537.45,89.88,487.82,43.46,438.24,0H51.08l968,968Z"/><path class="cls-22" d="M532.86,968c-88.2-134.74-205.69-279-345.73-419.08C125.19,487,62.41,429.47,0,376.94v369.8L221.26,968Z"/><path class="cls-23" d="M1433,260q-8.7-9-17.62-17.87C1309.45,136.22,1199.29,52.59,1102.8,0H950.6L1433,482.41Z"/></g></g></g></g></svg>