<?xml version="1.0" encoding="utf-8"?>
<!-- Generator: Adobe Illustrator 21.0.0, SVG Export Plug-In . SVG Version: 6.00 Build 0)  -->
<svg version="1.1" id="Layer_1" xmlns="http://www.w3.org/2000/svg" xmlns:xlink="http://www.w3.org/1999/xlink" x="0px" y="0px"
	 viewBox="0 0 64 64" style="enable-background:new 0 0 64 64;" xml:space="preserve">
<style type="text/css">
	.st0{fill:#211D57;}
	.st1{fill-rule:evenodd;clip-rule:evenodd;fill:#211D57;}
	.st2{fill:#FFFFFF;}
</style>
<g>
	<path class="st0" d="M0.8,28.5c0.3-1.2,0.9-2.3,2.1-2.8c0.6-0.3,1.3-0.5,1.9-0.5c11.6,0,23.3,0,34.9,0c2.3,0,3.9,1.6,4,3.9
		c-9.1,0-18.2,0-27.3,0c0,1.3,0,2.6,0,3.9c9.1,0,18.1,0,27.3,0c0,0.3,0,0.5,0,0.7c0,7.4,0,14.9,0,22.3c0,2.7-1.6,4.3-4.3,4.3
		c-11.3,0-22.5,0-33.8,0c-2.9,0-3.8-0.6-4.8-3.3C0.8,47.5,0.8,38,0.8,28.5z M12.4,44.7c-2.1,0-3.9,1.8-3.9,3.9
		c0,2.1,1.8,3.9,3.9,3.9c2.1,0,3.9-1.8,3.9-3.9C16.4,46.5,14.6,44.7,12.4,44.7z"/>
	<path class="st0" d="M0.8,12.5c0.2-0.5,0.3-1.1,0.5-1.6C2.5,7.2,6.3,5,10.1,5.8c3.8,0.8,6.5,4.3,6.2,8.2c-0.3,3.9-3.5,7.1-7.4,7.3
		c-4,0.2-7.4-2.6-8.1-6.5c0-0.1-0.1-0.2-0.1-0.3C0.8,13.8,0.8,13.1,0.8,12.5z"/>
	<path class="st0" d="M63.2,42.7c0,5.7,0,11.5,0,17.2c0,0.5-0.1,1.1-0.2,1.6c-0.3,0.8-1,1.2-1.8,0.9c-0.5-0.2-0.9-0.4-1.3-0.7
		c-3-2.2-6-4.4-8.9-6.7c-2.2-1.7-3.3-3.9-3.3-6.7c0-3.7,0-7.4,0-11.1c0-2.8,1.2-5,3.4-6.7c2.9-2.3,5.9-4.5,8.9-6.7
		c0.4-0.3,0.9-0.6,1.3-0.7c0.8-0.3,1.5,0,1.8,0.9c0.2,0.5,0.2,1.1,0.2,1.6C63.3,31.3,63.2,37,63.2,42.7z"/>
	<path class="st0" d="M32,1.7c5.4,0,9.8,4.4,9.7,9.8c0,5.4-4.4,9.7-9.8,9.7c-5.4,0-9.8-4.4-9.7-9.8C22.3,6.1,26.7,1.7,32,1.7z"/>
</g>
</svg>
