<?xml version="1.0" encoding="utf-8"?>
<!-- Generator: Adobe Illustrator 21.0.0, SVG Export Plug-In . SVG Version: 6.00 Build 0)  -->
<svg version="1.1" id="Layer_1" xmlns="http://www.w3.org/2000/svg" xmlns:xlink="http://www.w3.org/1999/xlink" x="0px" y="0px"
	 viewBox="0 0 64 64" style="enable-background:new 0 0 64 64;" xml:space="preserve">
<style type="text/css">
	.st0{fill-rule:evenodd;clip-rule:evenodd;fill:#211D57;}
	.st1{fill:#FFFFFF;}
	.st2{fill:#211D57;}
</style>
<g>
	<path class="st2" d="M63.2,38.2V9.9c0-2.3-1.9-4.2-4.2-4.2H5.4c-2.3,0-4.2,1.9-4.2,4.2v28.3H63.2z"/>
	<path class="st2" d="M1.2,40.1v6.1c0,2.3,1.9,4.2,4.2,4.2h21.1v6H18c-0.8,0-1.4,0.6-1.4,1.4v0c0,0.8,0.6,1.4,1.4,1.4h28.4
		c0.8,0,1.4-0.6,1.4-1.4v0c0-0.8-0.6-1.4-1.4-1.4h-8.5v-6H59c2.3,0,4.2-1.9,4.2-4.2v-6.1H1.2z M32.2,47.4c-1,0-1.9-0.8-1.9-1.9
		c0-1,0.8-1.9,1.9-1.9c1,0,1.9,0.8,1.9,1.9C34.1,46.5,33.2,47.4,32.2,47.4z"/>
</g>
<g>
	<path class="st1" d="M19.9,23.7l1-5.8h2.9l-2.3,9.8h-2.6l-1.6-5.8l-1.6,5.8h-2.6l-2.3-9.8h2.9l1,5.9l1.6-5.9h2.1L19.9,23.7z"/>
	<path class="st1" d="M34.2,23.7l1-5.8h2.9l-2.3,9.8h-2.6l-1.6-5.8L30,27.7h-2.6l-2.3-9.8h2.9l1,5.9l1.6-5.9h2.1L34.2,23.7z"/>
	<path class="st1" d="M48.6,23.7l1-5.8h2.9l-2.3,9.8h-2.6L46,21.9l-1.6,5.8h-2.6l-2.3-9.8h2.9l1,5.9l1.6-5.9h2.1L48.6,23.7z"/>
</g>
</svg>
