<svg xmlns="http://www.w3.org/2000/svg" viewBox="0 0 17.81 17.95"><defs><style>.cls-1{fill:#39b54a;fill-rule:evenodd;}</style></defs><title>Asset 7</title><g id="Layer_2" data-name="Layer 2"><g id="Layer_8" data-name="Layer 8"><path class="cls-1" d="M9.07,0A8.75,8.75,0,0,0,1.58,13.26L0,18,4.84,16.4A8.75,8.75,0,1,0,9.07,0Zm0,16a7.24,7.24,0,0,1-4-1.2l-2.8.9L3.17,13a7.28,7.28,0,1,1,5.89,3Zm4.1-5.29c-.22-.12-1.3-.7-1.5-.78s-.35-.12-.51.09-.6.7-.74.85-.27.16-.49,0A6.1,6.1,0,0,1,8.18,9.75,6.74,6.74,0,0,1,7,8.16c-.12-.23,0-.34.12-.45s.23-.25.35-.38A1.53,1.53,0,0,0,7.7,7a.41.41,0,0,0,0-.39c-.05-.11-.46-1.23-.63-1.68s-.36-.39-.49-.39l-.43,0a.82.82,0,0,0-.61.26A2.5,2.5,0,0,0,4.7,6.56,4.34,4.34,0,0,0,5.53,8.9a9.16,9.16,0,0,0,3.69,3.51c2.24,1,2.25.68,2.66.66a2.26,2.26,0,0,0,1.55-1A1.86,1.86,0,0,0,13.59,11C13.53,10.91,13.39,10.85,13.17,10.73Z"/></g></g></svg>